<svg width="24" height="24" viewBox="0 0 24 24" fill="none" xmlns="http://www.w3.org/2000/svg">
<g clip-path="url(#clip0_1631_380)">
<path d="M15.3104 8.69519C14.9999 8.69519 14.7483 8.9468 14.7483 9.25725V19.8802C14.7483 20.1904 14.9999 20.4423 15.3104 20.4423C15.6208 20.4423 15.8724 20.1904 15.8724 19.8802V9.25725C15.8724 8.9468 15.6208 8.69519 15.3104 8.69519Z" fill="#008F02"/>
<path d="M8.67803 8.69519C8.36758 8.69519 8.11597 8.9468 8.11597 9.25725V19.8802C8.11597 20.1904 8.36758 20.4423 8.67803 20.4423C8.98848 20.4423 9.24009 20.1904 9.24009 19.8802V9.25725C9.24009 8.9468 8.98848 8.69519 8.67803 8.69519Z" fill="#008F02"/>
<path d="M3.84414 7.14506V20.993C3.84414 21.8115 4.14427 22.5802 4.66857 23.1317C5.19045 23.6847 5.91674 23.9987 6.67683 24H17.3112C18.0715 23.9987 18.7978 23.6847 19.3194 23.1317C19.8437 22.5802 20.1439 21.8115 20.1439 20.993V7.14506C21.1861 6.86842 21.8614 5.86155 21.722 4.7921C21.5824 3.72287 20.6714 2.92303 19.593 2.92281H16.7153V2.22024C16.7186 1.62942 16.485 1.06209 16.0667 0.644716C15.6485 0.227563 15.0803 -0.00472583 14.4895 0.000104368H9.49855C8.90772 -0.00472583 8.33952 0.227563 7.92127 0.644716C7.50302 1.06209 7.26941 1.62942 7.2727 2.22024V2.92281H4.395C3.31655 2.92303 2.40562 3.72287 2.26599 4.7921C2.12657 5.86155 2.80192 6.86842 3.84414 7.14506ZM17.3112 22.8759H6.67683C5.71584 22.8759 4.96826 22.0504 4.96826 20.993V7.19446H19.0197V20.993C19.0197 22.0504 18.2722 22.8759 17.3112 22.8759ZM8.39682 2.22024C8.39309 1.92757 8.50814 1.64588 8.71583 1.43928C8.92331 1.23268 9.20566 1.11917 9.49855 1.12422H14.4895C14.7823 1.11917 15.0647 1.23268 15.2722 1.43928C15.4799 1.64566 15.5949 1.92757 15.5912 2.22024V2.92281H8.39682V2.22024ZM4.395 4.04693H19.593C20.1518 4.04693 20.6047 4.49987 20.6047 5.05864C20.6047 5.6174 20.1518 6.07034 19.593 6.07034H4.395C3.83624 6.07034 3.3833 5.6174 3.3833 5.05864C3.3833 4.49987 3.83624 4.04693 4.395 4.04693Z" fill="#008F02"/>
<path d="M11.9942 8.69519C11.6837 8.69519 11.4321 8.9468 11.4321 9.25725V19.8802C11.4321 20.1904 11.6837 20.4423 11.9942 20.4423C12.3046 20.4423 12.5562 20.1904 12.5562 19.8802V9.25725C12.5562 8.9468 12.3046 8.69519 11.9942 8.69519Z" fill="#008F02"/>
</g>
<defs>
<clipPath id="clip0_1631_380">
<rect width="24" height="24" fill="white"/>
</clipPath>
</defs>
</svg>
