<svg width="24" height="24" viewBox="0 0 24 24" fill="none" xmlns="http://www.w3.org/2000/svg">
<g clip-path="url(#clip0_1631_379)">
<path d="M22.1511 15.0765C21.8209 15.0765 21.5533 15.3441 21.5533 15.6743V20.9814C21.5522 21.9714 20.7501 22.7736 19.7602 22.7746H2.98862C1.99864 22.7736 1.19662 21.9714 1.19545 20.9814V5.40531C1.19662 4.41556 1.99864 3.6133 2.98862 3.61214H8.29576C8.62591 3.61214 8.89348 3.34456 8.89348 3.01441C8.89348 2.6845 8.62591 2.41669 8.29576 2.41669H2.98862C1.33881 2.41855 0.00186789 3.7555 0 5.40531V20.9816C0.00186789 22.6314 1.33881 23.9684 2.98862 23.9703H19.7602C21.41 23.9684 22.7469 22.6314 22.7488 20.9816V15.6743C22.7488 15.3441 22.4812 15.0765 22.1511 15.0765Z" fill="#008F02"/>
<path d="M22.5118 0.878905C21.4614 -0.171549 19.7583 -0.171549 18.7079 0.878905L8.04408 11.5427C7.971 11.6158 7.91823 11.7064 7.89068 11.8058L6.48836 16.8685C6.43069 17.0761 6.4893 17.2983 6.64153 17.4508C6.794 17.603 7.01628 17.6616 7.22385 17.6042L12.2865 16.2017C12.386 16.1741 12.4766 16.1213 12.5497 16.0483L23.2132 5.38425C24.262 4.3331 24.262 2.63145 23.2132 1.5803L22.5118 0.878905ZM9.34647 11.9312L18.0739 3.20349L20.8886 6.01817L12.1609 14.7459L9.34647 11.9312ZM8.78423 13.0594L11.0329 15.3083L7.92244 16.1701L8.78423 13.0594ZM22.368 4.53903L21.7341 5.17295L18.9192 2.35804L19.5533 1.72412C20.1368 1.14064 21.0829 1.14064 21.6664 1.72412L22.368 2.42552C22.9505 3.0097 22.9505 3.95508 22.368 4.53903Z" fill="#008F02"/>
</g>
<defs>
<clipPath id="clip0_1631_379">
<rect width="24" height="24" fill="white"/>
</clipPath>
</defs>
</svg>
